<svg width="130" height="24" viewBox="0 0 130 24" fill="none" xmlns="http://www.w3.org/2000/svg">
<path d="M-7.15256e-07 23.2727V-2.28882e-05H4.84091V8.74998H4.98864C5.20076 8.28028 5.50758 7.80301 5.90909 7.31816C6.31818 6.82574 6.84848 6.41664 7.5 6.09089C8.15909 5.75755 8.97727 5.59089 9.95455 5.59089C11.2273 5.59089 12.4015 5.92422 13.4773 6.59089C14.553 7.24998 15.4129 8.24619 16.0568 9.57952C16.7008 10.9053 17.0227 12.5682 17.0227 14.5682C17.0227 16.5151 16.7083 18.1591 16.0795 19.5C15.4583 20.8333 14.6098 21.8447 13.5341 22.5341C12.4659 23.2159 11.2689 23.5568 9.94318 23.5568C9.00379 23.5568 8.20455 23.4015 7.54545 23.0909C6.89394 22.7803 6.35985 22.3901 5.94318 21.9204C5.52651 21.4432 5.20833 20.9621 4.98864 20.4773H4.77273V23.2727H-7.15256e-07ZM4.73864 14.5454C4.73864 15.5833 4.88258 16.4886 5.17045 17.2613C5.45833 18.0341 5.875 18.6363 6.42045 19.0682C6.96591 19.4924 7.62879 19.7045 8.40909 19.7045C9.19697 19.7045 9.86364 19.4886 10.4091 19.0568C10.9545 18.6174 11.3674 18.0113 11.6477 17.2386C11.9356 16.4583 12.0795 15.5606 12.0795 14.5454C12.0795 13.5379 11.9394 12.6515 11.6591 11.8863C11.3788 11.1212 10.9659 10.5227 10.4205 10.0909C9.875 9.65907 9.20455 9.44316 8.40909 9.44316C7.62121 9.44316 6.95454 9.65149 6.40909 10.0682C5.87121 10.4848 5.45833 11.0757 5.17045 11.8409C4.88258 12.606 4.73864 13.5076 4.73864 14.5454ZM31.126 15.8409V5.81816H35.9669V23.2727H31.3192V20.1023H31.1374C30.7434 21.125 30.0881 21.9469 29.1715 22.5682C28.2624 23.1894 27.1525 23.5 25.8419 23.5C24.6753 23.5 23.6487 23.2348 22.7624 22.7045C21.876 22.1742 21.1828 21.4204 20.6828 20.4432C20.1904 19.4659 19.9404 18.2954 19.9328 16.9318V5.81816H24.7737V16.0682C24.7813 17.0985 25.0578 17.9129 25.6033 18.5113C26.1487 19.1098 26.8798 19.4091 27.7965 19.4091C28.3798 19.4091 28.9253 19.2765 29.4328 19.0113C29.9404 18.7386 30.3495 18.3371 30.6601 17.8068C30.9783 17.2765 31.1336 16.6212 31.126 15.8409ZM39.5191 23.2727V5.81816H44.2123V8.86361H44.3941C44.7123 7.78028 45.2464 6.9621 45.9964 6.40907C46.7464 5.84846 47.61 5.56816 48.5873 5.56816C48.8297 5.56816 49.0911 5.58331 49.3714 5.61361C49.6517 5.64392 49.8979 5.68558 50.11 5.73861V10.0341C49.8827 9.96589 49.5683 9.90528 49.1668 9.85225C48.7653 9.79922 48.3979 9.77271 48.0645 9.77271C47.3524 9.77271 46.7161 9.92801 46.1555 10.2386C45.6024 10.5416 45.163 10.9659 44.8373 11.5113C44.5191 12.0568 44.36 12.6856 44.36 13.3977V23.2727H39.5191ZM59.3667 23.6136C57.6016 23.6136 56.075 23.2386 54.7872 22.4886C53.5069 21.731 52.5182 20.678 51.8213 19.3295C51.1243 17.9735 50.7758 16.4015 50.7758 14.6136C50.7758 12.8106 51.1243 11.2348 51.8213 9.88634C52.5182 8.53028 53.5069 7.47725 54.7872 6.72725C56.075 5.96967 57.6016 5.59089 59.3667 5.59089C61.1319 5.59089 62.6546 5.96967 63.9349 6.72725C65.2228 7.47725 66.2152 8.53028 66.9122 9.88634C67.6091 11.2348 67.9576 12.8106 67.9576 14.6136C67.9576 16.4015 67.6091 17.9735 66.9122 19.3295C66.2152 20.678 65.2228 21.731 63.9349 22.4886C62.6546 23.2386 61.1319 23.6136 59.3667 23.6136ZM59.3894 19.8636C60.1925 19.8636 60.8629 19.6363 61.4008 19.1818C61.9387 18.7197 62.344 18.0909 62.6167 17.2954C62.897 16.5 63.0372 15.5947 63.0372 14.5795C63.0372 13.5644 62.897 12.6591 62.6167 11.8636C62.344 11.0682 61.9387 10.4394 61.4008 9.97725C60.8629 9.51513 60.1925 9.28407 59.3894 9.28407C58.5788 9.28407 57.897 9.51513 57.344 9.97725C56.7985 10.4394 56.3856 11.0682 56.1053 11.8636C55.8326 12.6591 55.6963 13.5644 55.6963 14.5795C55.6963 15.5947 55.8326 16.5 56.1053 17.2954C56.3856 18.0909 56.7985 18.7197 57.344 19.1818C57.897 19.6363 58.5788 19.8636 59.3894 19.8636ZM78.6717 23.6136C76.8838 23.6136 75.3459 23.2348 74.0581 22.4773C72.7778 21.7121 71.7929 20.6515 71.1035 19.2954C70.4217 17.9394 70.0808 16.3788 70.0808 14.6136C70.0808 12.8257 70.4255 11.2576 71.1149 9.90907C71.8118 8.55301 72.8005 7.49619 74.0808 6.73861C75.3611 5.97346 76.8838 5.59089 78.649 5.59089C80.1717 5.59089 81.505 5.8674 82.649 6.42043C83.7929 6.97346 84.6982 7.74998 85.3649 8.74998C86.0315 9.74998 86.399 10.9242 86.4672 12.2727H81.899C81.7702 11.4015 81.4293 10.7007 80.8762 10.1704C80.3308 9.63255 79.6149 9.36361 78.7285 9.36361C77.9785 9.36361 77.3232 9.56816 76.7626 9.97725C76.2096 10.3788 75.7778 10.9659 75.4672 11.7386C75.1565 12.5113 75.0012 13.4469 75.0012 14.5454C75.0012 15.6591 75.1528 16.606 75.4558 17.3863C75.7664 18.1666 76.202 18.7613 76.7626 19.1704C77.3232 19.5795 77.9785 19.7841 78.7285 19.7841C79.2815 19.7841 79.7778 19.6704 80.2172 19.4432C80.6641 19.2159 81.0315 18.8863 81.3194 18.4545C81.6149 18.0151 81.8081 17.4886 81.899 16.875H86.4672C86.3914 18.2083 86.0278 19.3826 85.3762 20.3977C84.7323 21.4053 83.8422 22.1932 82.7058 22.7613C81.5694 23.3295 80.2247 23.6136 78.6717 23.6136ZM89.2466 23.2727V5.81816H93.9398V8.86361H94.1216C94.4398 7.78028 94.9739 6.9621 95.7239 6.40907C96.4739 5.84846 97.3375 5.56816 98.3148 5.56816C98.5572 5.56816 98.8186 5.58331 99.0989 5.61361C99.3792 5.64392 99.6254 5.68558 99.8375 5.73861V10.0341C99.6102 9.96589 99.2958 9.90528 98.8943 9.85225C98.4928 9.79922 98.1254 9.77271 97.792 9.77271C97.0799 9.77271 96.4436 9.92801 95.883 10.2386C95.3299 10.5416 94.8905 10.9659 94.5648 11.5113C94.2466 12.0568 94.0875 12.6856 94.0875 13.3977V23.2727H89.2466ZM106.498 23.6023C105.384 23.6023 104.392 23.4091 103.52 23.0227C102.649 22.6288 101.96 22.0492 101.452 21.2841C100.952 20.5113 100.702 19.5492 100.702 18.3977C100.702 17.428 100.88 16.6136 101.236 15.9545C101.592 15.2954 102.077 14.7651 102.691 14.3636C103.304 13.9621 104.001 13.6591 104.782 13.4545C105.57 13.25 106.395 13.106 107.259 13.0227C108.274 12.9166 109.092 12.8182 109.714 12.7273C110.335 12.6288 110.786 12.4848 111.066 12.2954C111.346 12.106 111.486 11.8257 111.486 11.4545V11.3863C111.486 10.6666 111.259 10.1098 110.804 9.71589C110.357 9.32195 109.721 9.12498 108.895 9.12498C108.024 9.12498 107.331 9.31816 106.816 9.70452C106.301 10.0833 105.96 10.5606 105.793 11.1363L101.316 10.7727C101.543 9.7121 101.99 8.79543 102.657 8.02271C103.323 7.2424 104.183 6.64392 105.236 6.22725C106.297 5.80301 107.524 5.59089 108.918 5.59089C109.888 5.59089 110.816 5.70452 111.702 5.9318C112.596 6.15907 113.388 6.51134 114.077 6.98861C114.774 7.46589 115.323 8.07952 115.725 8.82952C116.126 9.57195 116.327 10.4621 116.327 11.5V23.2727H111.736V20.8523H111.6C111.32 21.3977 110.945 21.8788 110.475 22.2954C110.005 22.7045 109.441 23.0265 108.782 23.2613C108.123 23.4886 107.361 23.6023 106.498 23.6023ZM107.884 20.2613C108.596 20.2613 109.225 20.1212 109.77 19.8409C110.316 19.553 110.744 19.1666 111.054 18.6818C111.365 18.1969 111.52 17.6477 111.52 17.0341V15.1818C111.369 15.2803 111.161 15.3712 110.895 15.4545C110.638 15.5303 110.346 15.6023 110.02 15.6704C109.695 15.731 109.369 15.7879 109.043 15.8409C108.717 15.8863 108.422 15.928 108.157 15.9659C107.589 16.0492 107.092 16.1818 106.668 16.3636C106.244 16.5454 105.914 16.7916 105.679 17.1023C105.445 17.4053 105.327 17.7841 105.327 18.2386C105.327 18.8977 105.566 19.4015 106.043 19.75C106.528 20.0909 107.142 20.2613 107.884 20.2613ZM129.047 5.81816V9.45452H118.536V5.81816H129.047ZM120.922 1.63634H125.763V17.9091C125.763 18.356 125.831 18.7045 125.967 18.9545C126.104 19.1969 126.293 19.3674 126.536 19.4659C126.786 19.5644 127.073 19.6136 127.399 19.6136C127.626 19.6136 127.854 19.5947 128.081 19.5568C128.308 19.5113 128.483 19.4773 128.604 19.4545L129.365 23.0568C129.123 23.1326 128.782 23.2197 128.342 23.3182C127.903 23.4242 127.369 23.4886 126.74 23.5113C125.573 23.5568 124.551 23.4015 123.672 23.0454C122.801 22.6894 122.123 22.1363 121.638 21.3863C121.153 20.6363 120.914 19.6894 120.922 18.5454V1.63634Z" fill="black"/>
</svg>
