<svg width="21" height="21" viewBox="0 0 21 21" fill="none" xmlns="http://www.w3.org/2000/svg">
<path d="M10.5 0.499995C8.96788 0.497223 7.45562 0.846534 6.07993 1.52097C4.70425 2.1954 3.50192 3.17691 2.56577 4.38976C1.62961 5.6026 0.98466 7.01433 0.68069 8.51599C0.37672 10.0176 0.421863 11.5691 0.812634 13.0505C1.2034 14.532 1.92935 15.9038 2.93445 17.0602C3.93954 18.2165 5.1969 19.1265 6.60948 19.7198C8.02205 20.3131 9.55207 20.5738 11.0814 20.482C12.6108 20.3901 14.0986 19.9481 15.43 19.19H15.5H15.55C17.4753 18.094 18.9821 16.3898 19.8339 14.3447C20.6858 12.2997 20.8345 10.0297 20.2566 7.89103C19.6788 5.75236 18.4071 3.86613 16.6412 2.52841C14.8753 1.19069 12.7152 0.477219 10.5 0.499995ZM11.5 2.56999C13.26 2.79319 14.8959 3.59509 16.1504 4.84958C17.4049 6.10407 18.2068 7.73997 18.43 9.5H11.5V2.56999ZM10.5 18.5C8.4745 18.4862 6.52965 17.7045 5.05793 16.3128C3.58621 14.9211 2.6972 13.023 2.5703 11.0014C2.44339 8.97983 3.08805 6.98539 4.37417 5.42055C5.6603 3.85572 7.49213 2.83701 9.5 2.56999V10.5C9.50394 10.6197 9.52759 10.738 9.56999 10.85V10.93V11L13.57 17.87C12.5997 18.2853 11.5554 18.4996 10.5 18.5ZM15.33 16.86L12.23 11.5H18.43C18.2954 12.5546 17.9519 13.5718 17.4196 14.4921C16.8873 15.4124 16.1769 16.2174 15.33 16.86Z"/>
</svg>
