<svg width="23" height="17" viewBox="0 0 23 17" fill="none" xmlns="http://www.w3.org/2000/svg">
<path d="M11.8 8.72C12.3336 8.25813 12.7616 7.68688 13.0549 7.04502C13.3482 6.40316 13.5 5.70571 13.5 5C13.5 3.67392 12.9732 2.40215 12.0355 1.46447C11.0979 0.526784 9.82608 1.78911e-07 8.5 1.78911e-07C7.17392 1.78911e-07 5.90215 0.526784 4.96447 1.46447C4.02678 2.40215 3.5 3.67392 3.5 5C3.49999 5.70571 3.6518 6.40316 3.94513 7.04502C4.23845 7.68688 4.66642 8.25813 5.2 8.72C3.80014 9.35388 2.61247 10.3775 1.77898 11.6685C0.945495 12.9596 0.501472 14.4633 0.5 16C0.5 16.2652 0.605357 16.5196 0.792893 16.7071C0.98043 16.8946 1.23478 17 1.5 17C1.76522 17 2.01957 16.8946 2.20711 16.7071C2.39464 16.5196 2.5 16.2652 2.5 16C2.5 14.4087 3.13214 12.8826 4.25736 11.7574C5.38258 10.6321 6.9087 10 8.5 10C10.0913 10 11.6174 10.6321 12.7426 11.7574C13.8679 12.8826 14.5 14.4087 14.5 16C14.5 16.2652 14.6054 16.5196 14.7929 16.7071C14.9804 16.8946 15.2348 17 15.5 17C15.7652 17 16.0196 16.8946 16.2071 16.7071C16.3946 16.5196 16.5 16.2652 16.5 16C16.4985 14.4633 16.0545 12.9596 15.221 11.6685C14.3875 10.3775 13.1999 9.35388 11.8 8.72ZM8.5 8C7.90666 8 7.32664 7.82405 6.83329 7.49441C6.33994 7.16476 5.95542 6.69623 5.72836 6.14805C5.5013 5.59987 5.44189 4.99667 5.55764 4.41473C5.6734 3.83279 5.95912 3.29824 6.37868 2.87868C6.79824 2.45912 7.33279 2.1734 7.91473 2.05764C8.49667 1.94189 9.09987 2.0013 9.64805 2.22836C10.1962 2.45542 10.6648 2.83994 10.9944 3.33329C11.3241 3.82664 11.5 4.40666 11.5 5C11.5 5.79565 11.1839 6.55871 10.6213 7.12132C10.0587 7.68393 9.29565 8 8.5 8ZM18.24 8.32C18.88 7.59933 19.298 6.70905 19.4438 5.75634C19.5896 4.80362 19.4569 3.82907 19.0618 2.95C18.6666 2.07093 18.0258 1.3248 17.2165 0.801423C16.4071 0.27805 15.4638 -0.0002576 14.5 1.78911e-07C14.2348 1.78911e-07 13.9804 0.105357 13.7929 0.292893C13.6054 0.48043 13.5 0.734784 13.5 1C13.5 1.26522 13.6054 1.51957 13.7929 1.70711C13.9804 1.89464 14.2348 2 14.5 2C15.2956 2 16.0587 2.31607 16.6213 2.87868C17.1839 3.44129 17.5 4.20435 17.5 5C17.4986 5.52524 17.3593 6.0409 17.0961 6.49542C16.8328 6.94994 16.4549 7.32738 16 7.59C15.8517 7.67552 15.7279 7.79766 15.6404 7.94474C15.5528 8.09182 15.5045 8.2589 15.5 8.43C15.4958 8.59976 15.5349 8.7678 15.6137 8.91826C15.6924 9.06872 15.8081 9.19665 15.95 9.29L16.34 9.55L16.47 9.62C17.6754 10.1917 18.6923 11.096 19.401 12.2263C20.1096 13.3566 20.4805 14.6659 20.47 16C20.47 16.2652 20.5754 16.5196 20.7629 16.7071C20.9504 16.8946 21.2048 17 21.47 17C21.7352 17 21.9896 16.8946 22.1771 16.7071C22.3646 16.5196 22.47 16.2652 22.47 16C22.4782 14.4654 22.0938 12.9543 21.3535 11.6101C20.6131 10.2659 19.5413 9.13331 18.24 8.32Z"/>
</svg>
