<svg width="104" height="104" viewBox="0 0 104 104" fill="none" xmlns="http://www.w3.org/2000/svg">
<rect width="104" height="104" rx="52" fill="#E4E8E6"/>
<path d="M68 70V66C68 63.8783 67.1571 61.8434 65.6569 60.3431C64.1566 58.8429 62.1217 58 60 58H44C41.8783 58 39.8434 58.8429 38.3431 60.3431C36.8429 61.8434 36 63.8783 36 66V70" stroke="black" stroke-width="3" stroke-linecap="round" stroke-linejoin="round"/>
<path d="M52 50C56.4183 50 60 46.4183 60 42C60 37.5817 56.4183 34 52 34C47.5817 34 44 37.5817 44 42C44 46.4183 47.5817 50 52 50Z" stroke="black" stroke-width="3" stroke-linecap="round" stroke-linejoin="round"/>
</svg>
