<svg width="64" height="64" viewBox="0 0 64 64" fill="none" xmlns="http://www.w3.org/2000/svg">
<path d="M58.6667 50.6667C58.6667 52.0812 58.1048 53.4377 57.1046 54.4379C56.1044 55.4381 54.7478 56 53.3333 56H10.6667C9.25217 56 7.89562 55.4381 6.89543 54.4379C5.89523 53.4377 5.33333 52.0812 5.33333 50.6667V13.3333C5.33333 11.9188 5.89523 10.5623 6.89543 9.5621C7.89562 8.5619 9.25217 8 10.6667 8H24L29.3333 16H53.3333C54.7478 16 56.1044 16.5619 57.1046 17.5621C58.1048 18.5623 58.6667 19.9188 58.6667 21.3333V50.6667Z" stroke="black" stroke-opacity="0.6" stroke-width="3" stroke-linecap="round" stroke-linejoin="round"/>
<path d="M24 37.3335H40" stroke="black" stroke-opacity="0.6" stroke-width="3" stroke-linecap="round" stroke-linejoin="round"/>
</svg>
