<svg width="21" height="21" viewBox="0 0 21 21" fill="none" xmlns="http://www.w3.org/2000/svg">
<path d="M7.50001 10.5H5.50001C5.23479 10.5 4.98044 10.6054 4.7929 10.7929C4.60537 10.9804 4.50001 11.2348 4.50001 11.5C4.50001 11.7652 4.60537 12.0196 4.7929 12.2071C4.98044 12.3947 5.23479 12.5 5.50001 12.5H7.50001C7.76522 12.5 8.01958 12.3947 8.20711 12.2071C8.39465 12.0196 8.50001 11.7652 8.50001 11.5C8.50001 11.2348 8.39465 10.9804 8.20711 10.7929C8.01958 10.6054 7.76522 10.5 7.50001 10.5ZM6.50001 8.50001H10.5C10.7652 8.50001 11.0196 8.39465 11.2071 8.20711C11.3947 8.01958 11.5 7.76522 11.5 7.50001C11.5 7.23479 11.3947 6.98044 11.2071 6.7929C11.0196 6.60536 10.7652 6.50001 10.5 6.50001H6.50001C6.23479 6.50001 5.98044 6.60536 5.7929 6.7929C5.60537 6.98044 5.50001 7.23479 5.50001 7.50001C5.50001 7.76522 5.60537 8.01958 5.7929 8.20711C5.98044 8.39465 6.23479 8.50001 6.50001 8.50001ZM7.50001 14.5H5.50001C5.23479 14.5 4.98044 14.6054 4.7929 14.7929C4.60537 14.9804 4.50001 15.2348 4.50001 15.5C4.50001 15.7652 4.60537 16.0196 4.7929 16.2071C4.98044 16.3947 5.23479 16.5 5.50001 16.5H7.50001C7.76522 16.5 8.01958 16.3947 8.20711 16.2071C8.39465 16.0196 8.50001 15.7652 8.50001 15.5C8.50001 15.2348 8.39465 14.9804 8.20711 14.7929C8.01958 14.6054 7.76522 14.5 7.50001 14.5ZM19.5 10.5H16.5V1.50001C16.5007 1.3238 16.4548 1.15053 16.367 0.997753C16.2792 0.844976 16.1526 0.718112 16 0.630007C15.848 0.542239 15.6755 0.496033 15.5 0.496033C15.3245 0.496033 15.152 0.542239 15 0.630007L12 2.35001L9.00001 0.630007C8.84799 0.542239 8.67554 0.496033 8.50001 0.496033C8.32447 0.496033 8.15203 0.542239 8.00001 0.630007L5.00001 2.35001L2.00001 0.630007C1.84799 0.542239 1.67554 0.496033 1.50001 0.496033C1.32447 0.496033 1.15203 0.542239 1.00001 0.630007C0.847404 0.718112 0.720789 0.844976 0.632986 0.997753C0.545183 1.15053 0.499308 1.3238 0.500008 1.50001V17.5C0.500008 18.2957 0.816078 19.0587 1.37869 19.6213C1.9413 20.1839 2.70436 20.5 3.50001 20.5H17.5C18.2957 20.5 19.0587 20.1839 19.6213 19.6213C20.1839 19.0587 20.5 18.2957 20.5 17.5V11.5C20.5 11.2348 20.3947 10.9804 20.2071 10.7929C20.0196 10.6054 19.7652 10.5 19.5 10.5ZM3.50001 18.5C3.23479 18.5 2.98044 18.3947 2.7929 18.2071C2.60536 18.0196 2.50001 17.7652 2.50001 17.5V3.23001L4.50001 4.37001C4.65435 4.45062 4.82589 4.49272 5.00001 4.49272C5.17413 4.49272 5.34567 4.45062 5.50001 4.37001L8.50001 2.65001L11.5 4.37001C11.6543 4.45062 11.8259 4.49272 12 4.49272C12.1741 4.49272 12.3457 4.45062 12.5 4.37001L14.5 3.23001V17.5C14.5027 17.8412 14.5636 18.1793 14.68 18.5H3.50001ZM18.5 17.5C18.5 17.7652 18.3947 18.0196 18.2071 18.2071C18.0196 18.3947 17.7652 18.5 17.5 18.5C17.2348 18.5 16.9804 18.3947 16.7929 18.2071C16.6054 18.0196 16.5 17.7652 16.5 17.5V12.5H18.5V17.5ZM12.06 14.67C12.0043 14.6322 11.9437 14.6019 11.88 14.58C11.8205 14.5496 11.7562 14.5293 11.69 14.52C11.5294 14.4878 11.3633 14.4956 11.2063 14.5427C11.0494 14.5898 10.9064 14.6747 10.79 14.79C10.6073 14.9816 10.5037 15.2352 10.5 15.5C10.4984 15.63 10.5222 15.7591 10.57 15.88C10.6244 16.0015 10.6987 16.1131 10.79 16.21C10.8872 16.2983 10.9988 16.3694 11.12 16.42C11.2397 16.4729 11.3691 16.5002 11.5 16.5002C11.6309 16.5002 11.7603 16.4729 11.88 16.42C12.0012 16.3694 12.1128 16.2983 12.21 16.21C12.3027 16.1166 12.376 16.0058 12.4258 15.8839C12.4755 15.7621 12.5008 15.6316 12.5 15.5C12.4963 15.2352 12.3927 14.9816 12.21 14.79C12.1625 14.747 12.1124 14.7069 12.06 14.67ZM12.2 10.79C12.0832 10.6763 11.9404 10.5928 11.7841 10.5469C11.6277 10.501 11.4624 10.494 11.3027 10.5265C11.143 10.5591 10.9937 10.6302 10.8677 10.7336C10.7418 10.837 10.643 10.9697 10.58 11.12C10.5178 11.2715 10.4937 11.436 10.5099 11.599C10.5261 11.7619 10.5821 11.9184 10.6729 12.0547C10.7638 12.191 10.8867 12.3029 11.0309 12.3805C11.1751 12.4582 11.3362 12.4992 11.5 12.5C11.7652 12.5 12.0196 12.3947 12.2071 12.2071C12.3947 12.0196 12.5 11.7652 12.5 11.5C12.4984 11.3693 12.4712 11.2402 12.42 11.12C12.3718 10.9952 12.2967 10.8825 12.2 10.79Z"/>
</svg>
