<svg width="21" height="20" viewBox="0 0 21 20" fill="none" xmlns="http://www.w3.org/2000/svg">
<path d="M17.713 7.6281L17.467 8.1941C17.4286 8.28627 17.3637 8.365 17.2806 8.42038C17.1975 8.47575 17.0999 8.5053 17 8.5053C16.9001 8.5053 16.8025 8.47575 16.7194 8.42038C16.6363 8.365 16.5714 8.28627 16.533 8.1941L16.287 7.6281C15.8545 6.62683 15.0624 5.82402 14.067 5.3781L13.308 5.0391C13.2159 4.99675 13.1379 4.92887 13.0832 4.84353C13.0286 4.75819 12.9995 4.65896 12.9995 4.5576C12.9995 4.45625 13.0286 4.35702 13.0832 4.27168C13.1379 4.18633 13.2159 4.11846 13.308 4.0761L14.025 3.7571C15.0454 3.29848 15.8511 2.46599 16.276 1.4311L16.529 0.820104C16.5662 0.725458 16.631 0.644203 16.715 0.58693C16.799 0.529657 16.8983 0.499023 17 0.499023C17.1017 0.499023 17.201 0.529657 17.285 0.58693C17.369 0.644203 17.4338 0.725458 17.471 0.820104L17.724 1.4301C18.1485 2.46518 18.9538 3.29804 19.974 3.7571L20.692 4.0771C20.7838 4.11958 20.8615 4.18745 20.916 4.27268C20.9705 4.35791 20.9994 4.45695 20.9994 4.5581C20.9994 4.65926 20.9705 4.7583 20.916 4.84353C20.8615 4.92876 20.7838 4.99662 20.692 5.0391L19.932 5.3771C18.9368 5.82347 18.1451 6.62663 17.713 7.6281ZM4 3.5001C3.46957 3.5001 2.96086 3.71082 2.58579 4.08589C2.21071 4.46096 2 4.96967 2 5.5001V15.5001C2 16.0305 2.21071 16.5392 2.58579 16.9143C2.96086 17.2894 3.46957 17.5001 4 17.5001H16C16.5304 17.5001 17.0391 17.2894 17.4142 16.9143C17.7893 16.5392 18 16.0305 18 15.5001V10.5001H20V15.5001C20 16.561 19.5786 17.5784 18.8284 18.3285C18.0783 19.0787 17.0609 19.5001 16 19.5001H4C2.93913 19.5001 1.92172 19.0787 1.17157 18.3285C0.421427 17.5784 0 16.561 0 15.5001V5.5001C0 4.43924 0.421427 3.42182 1.17157 2.67168C1.92172 1.92153 2.93913 1.5001 4 1.5001H11V3.5001H4Z" fill="" />
</svg>
