<svg width="24" height="24" viewBox="0 0 24 24" fill="none" xmlns="http://www.w3.org/2000/svg">
<path d="M10.7803 20.2921L10.7293 20.3761C10.7011 20.4096 10.666 20.4365 10.6264 20.4549C10.5867 20.4734 10.5435 20.4829 10.4998 20.4829C10.4561 20.4829 10.4129 20.4734 10.3732 20.4549C10.3336 20.4365 10.2985 20.4096 10.2703 20.3761L10.2193 20.2921L10.1158 20.0296L10.4998 20.1811L10.8823 20.0311L10.7803 20.2921ZM10.2193 3.70814C10.2409 3.65122 10.2793 3.60222 10.3294 3.56764C10.3795 3.53306 10.4389 3.51454 10.4998 3.51454C10.5607 3.51454 10.6201 3.53306 10.6702 3.56764C10.7203 3.60222 10.7587 3.65122 10.7803 3.70814L12.3283 7.63514C12.5546 8.20884 12.8964 8.72991 13.3325 9.16599C13.7685 9.60207 14.2896 9.94386 14.8633 10.1701L18.5293 11.6146L18.6808 11.9986L18.5308 12.3811L14.8633 13.8271L14.6488 13.9171C13.5877 14.4007 12.7558 15.2773 12.3283 16.3621L10.8823 20.0281L10.4998 20.1796L10.1158 20.0296L8.6713 16.3621C8.2438 15.2773 7.41187 14.4007 6.3508 13.9171L6.1363 13.8271L2.2063 12.2791C2.14938 12.2576 2.10038 12.2192 2.0658 12.1691C2.03122 12.119 2.0127 12.0595 2.0127 11.9986C2.0127 11.9378 2.03122 11.8783 2.0658 11.8282C2.10038 11.7781 2.14938 11.7397 2.2063 11.7181L2.4688 11.6146L6.1363 10.1701C7.22117 9.74264 8.09773 8.91071 8.5813 7.84964L8.6713 7.63514L10.2193 3.70814ZM10.0663 8.18714C9.49574 9.63297 8.38636 10.801 6.9718 11.4451L6.6868 11.5651L5.5873 12.0001L6.6868 12.4336C7.45159 12.7354 8.14622 13.191 8.72757 13.7724C9.30892 14.3537 9.76459 15.0484 10.0663 15.8131L10.4998 16.9111L10.9348 15.8131C11.2363 15.0485 11.6918 14.354 12.2729 13.7726C12.854 13.1913 13.5483 12.7355 14.3128 12.4336L15.4108 12.0001L14.3128 11.5651C12.8675 10.9953 11.6996 9.88707 11.0548 8.47364L10.9348 8.18864L10.4998 7.08764L10.0663 8.18714ZM18.7918 11.7196C18.8487 11.7412 18.8977 11.7796 18.9323 11.8297C18.9669 11.8798 18.9854 11.9393 18.9854 12.0001C18.9854 12.061 18.9669 12.1205 18.9323 12.1706C18.8977 12.2207 18.8487 12.2591 18.7918 12.2806L18.5293 12.3826L18.6808 11.9986L18.5308 11.6161L18.7918 11.7196ZM18.5443 4.29914C18.8803 4.90064 19.4128 5.37314 20.0608 5.62964L20.6458 5.86064C20.6738 5.8717 20.6978 5.89092 20.7147 5.91579C20.7316 5.94067 20.7407 5.97006 20.7407 6.00014C20.7407 6.03023 20.7316 6.05962 20.7147 6.08449C20.6978 6.10937 20.6738 6.12859 20.6458 6.13964L20.5153 6.19064L20.0608 6.37064L19.7788 6.49964C19.1363 6.83315 18.636 7.38775 18.3703 8.06114L18.1903 8.51564L18.1393 8.64614L18.1153 8.68814C18.1012 8.70513 18.0836 8.7188 18.0636 8.72819C18.0436 8.73757 18.0219 8.74244 17.9998 8.74244C17.9777 8.74244 17.956 8.73757 17.936 8.72819C17.916 8.7188 17.8984 8.70513 17.8843 8.68814L17.8603 8.64614L17.8078 8.51564L17.6278 8.06114C17.3628 7.38825 16.8637 6.83372 16.2223 6.49964L15.9388 6.37064L15.3538 6.13964C15.3258 6.12859 15.3018 6.10937 15.2849 6.08449C15.268 6.05962 15.2589 6.03023 15.2589 6.00014C15.2589 5.97006 15.268 5.94067 15.2849 5.91579C15.3018 5.89092 15.3258 5.8717 15.3538 5.86064L15.4828 5.80814L15.9388 5.62814C16.5868 5.37314 17.1178 4.90064 17.4538 4.29914L17.9998 4.08464L18.5443 4.29914ZM17.8603 3.35414C17.8714 3.32617 17.8906 3.30216 17.9155 3.28524C17.9403 3.26832 17.9697 3.25928 17.9998 3.25928C18.0299 3.25928 18.0593 3.26832 18.0842 3.28524C18.109 3.30216 18.1282 3.32617 18.1393 3.35414L18.3703 3.93914C18.4203 4.06314 18.4783 4.18314 18.5443 4.29914L17.9998 4.08464L17.4538 4.29914L17.5003 4.22114L17.6293 3.93914L17.8603 3.35414ZM18.6388 13.7806C18.6478 13.7586 18.6632 13.7398 18.683 13.7266C18.7028 13.7133 18.726 13.7062 18.7498 13.7062C18.7736 13.7062 18.7969 13.7133 18.8166 13.7266C18.8364 13.7398 18.8518 13.7586 18.8608 13.7806C19.1602 14.5409 19.6129 15.2314 20.1907 15.8092C20.7685 16.387 21.459 16.8397 22.2193 17.1391C22.2413 17.1482 22.2601 17.1636 22.2734 17.1833C22.2866 17.2031 22.2937 17.2264 22.2937 17.2501C22.2937 17.2739 22.2866 17.2972 22.2734 17.317C22.2601 17.3367 22.2413 17.3521 22.2193 17.3611L22.1143 17.4061C21.3777 17.7124 20.7101 18.1635 20.1513 18.7327C19.5924 19.3019 19.1535 19.9776 18.8608 20.7196L18.8428 20.7526C18.8315 20.7662 18.8174 20.7771 18.8015 20.7845C18.7856 20.792 18.7682 20.7959 18.7506 20.7959C18.7329 20.7959 18.7155 20.792 18.6996 20.7845C18.6837 20.7771 18.6696 20.7662 18.6583 20.7526L18.6388 20.7181C18.0727 19.2815 16.9707 18.1208 15.5653 17.4811L15.2803 17.3611C15.2583 17.3521 15.2395 17.3367 15.2262 17.317C15.213 17.2972 15.2059 17.2739 15.2059 17.2501C15.2059 17.2264 15.213 17.2031 15.2262 17.1833C15.2395 17.1636 15.2583 17.1482 15.2803 17.1391C16.0406 16.8397 16.7311 16.387 17.3089 15.8092C17.8867 15.2314 18.3394 14.5409 18.6388 13.7806ZM18.7498 16.4566C18.5048 16.7416 18.2398 17.0061 17.9548 17.2501C18.2398 17.4951 18.5048 17.7591 18.7498 18.0421C18.9948 17.7581 19.2588 17.4941 19.5418 17.2501C19.2583 17.0053 18.9936 16.741 18.7498 16.4566Z" fill=""/>
</svg>
