<svg width="19" height="21" viewBox="0 0 19 21" fill="none" xmlns="http://www.w3.org/2000/svg">
  <path d="M17.5 6.5L11.5 1.24C10.95 0.748044 10.2379 0.476067 9.5 0.476067C8.76207 0.476067 8.05002 0.748044 7.5 1.24L1.5 6.5C1.18237 6.78407 0.928899 7.13256 0.756471 7.52224C0.584043 7.91193 0.496612 8.33388 0.499999 8.76V17.5C0.499999 18.2956 0.81607 19.0587 1.37868 19.6213C1.94129 20.1839 2.70435 20.5 3.5 20.5H15.5C16.2956 20.5 17.0587 20.1839 17.6213 19.6213C18.1839 19.0587 18.5 18.2956 18.5 17.5V8.75C18.502 8.32556 18.4138 7.90554 18.2415 7.51768C18.0691 7.12982 17.8164 6.78295 17.5 6.5ZM11.5 18.5H7.5V13.5C7.5 13.2348 7.60536 12.9804 7.79289 12.7929C7.98043 12.6054 8.23478 12.5 8.5 12.5H10.5C10.7652 12.5 11.0196 12.6054 11.2071 12.7929C11.3946 12.9804 11.5 13.2348 11.5 13.5V18.5ZM16.5 17.5C16.5 17.7652 16.3946 18.0196 16.2071 18.2071C16.0196 18.3946 15.7652 18.5 15.5 18.5H13.5V13.5C13.5 12.7043 13.1839 11.9413 12.6213 11.3787C12.0587 10.8161 11.2956 10.5 10.5 10.5H8.5C7.70435 10.5 6.94129 10.8161 6.37868 11.3787C5.81607 11.9413 5.5 12.7043 5.5 13.5V18.5H3.5C3.23478 18.5 2.98043 18.3946 2.79289 18.2071C2.60536 18.0196 2.5 17.7652 2.5 17.5V8.75C2.50018 8.60801 2.53059 8.46769 2.58922 8.33838C2.64784 8.20906 2.73333 8.09371 2.84 8L8.84 2.75C9.02249 2.58968 9.25709 2.50126 9.5 2.50126C9.74291 2.50126 9.97751 2.58968 10.16 2.75L16.16 8C16.2667 8.09371 16.3522 8.20906 16.4108 8.33838C16.4694 8.46769 16.4998 8.60801 16.5 8.75V17.5Z" />
</svg>