<svg width="16" height="23" viewBox="0 0 16 23" fill="none" xmlns="http://www.w3.org/2000/svg">
<path d="M13.09 2.32007C12.1703 1.56365 11.0933 1.0221 9.93766 0.734912C8.782 0.447727 7.5768 0.422157 6.41 0.660068C4.85638 0.97389 3.43099 1.74214 2.31469 2.86735C1.19838 3.99256 0.441475 5.424 0.140003 6.98007C-0.0801505 8.14679 -0.0401452 9.34772 0.257165 10.4972C0.554475 11.6467 1.10177 12.7164 1.86 13.6301C2.56369 14.4241 2.96704 15.4396 3 16.5001V19.5001C3 20.2957 3.31607 21.0588 3.87868 21.6214C4.44129 22.184 5.20435 22.5001 6 22.5001H10C10.7957 22.5001 11.5587 22.184 12.1213 21.6214C12.6839 21.0588 13 20.2957 13 19.5001V16.6901C13.0336 15.5192 13.4637 14.3945 14.22 13.5001C15.5451 11.8608 16.1698 9.76489 15.9582 7.66769C15.7466 5.5705 14.7159 3.64156 13.09 2.30007V2.32007ZM11 19.5001C11 19.7653 10.8946 20.0196 10.7071 20.2072C10.5196 20.3947 10.2652 20.5001 10 20.5001H6C5.73479 20.5001 5.48043 20.3947 5.2929 20.2072C5.10536 20.0196 5 19.7653 5 19.5001V18.5001H11V19.5001ZM12.67 12.2601C11.6645 13.4527 11.0779 14.9421 11 16.5001H9V13.5001C9 13.2349 8.89465 12.9805 8.70711 12.793C8.51957 12.6054 8.26522 12.5001 8 12.5001C7.73479 12.5001 7.48043 12.6054 7.2929 12.793C7.10536 12.9805 7 13.2349 7 13.5001V16.5001H5C4.97362 14.9682 4.40695 13.4948 3.4 12.3401C2.73564 11.5441 2.28889 10.5895 2.10331 9.56942C1.91773 8.54934 1.99965 7.49858 2.34109 6.5196C2.68253 5.54061 3.27182 4.66681 4.05153 3.98339C4.83123 3.29998 5.77472 2.83027 6.79 2.62007C7.66256 2.44041 8.56416 2.45731 9.42937 2.66954C10.2946 2.88176 11.1017 3.28399 11.7921 3.84702C12.4824 4.41005 13.0388 5.11975 13.4207 5.92459C13.8026 6.72943 14.0005 7.60921 14 8.50007C14.0074 9.86993 13.5371 11.1995 12.67 12.2601Z" fill=""/>
</svg>
