<svg width="20" height="21" viewBox="0 0 20 21" fill="none" xmlns="http://www.w3.org/2000/svg">
<path d="M15 7.16675C15 5.84067 14.4732 4.5689 13.5355 3.63121C12.5979 2.69353 11.3261 2.16675 10 2.16675C8.67392 2.16675 7.40215 2.69353 6.46447 3.63121C5.52678 4.5689 5 5.84067 5 7.16675C5 13.0001 2.5 14.6667 2.5 14.6667H17.5C17.5 14.6667 15 13.0001 15 7.16675Z" stroke="" stroke-width="2" stroke-linecap="round" stroke-linejoin="round"/>
<path d="M11.4417 18C11.2951 18.2526 11.0849 18.4622 10.8318 18.6079C10.5788 18.7537 10.292 18.8304 9.99999 18.8304C9.708 18.8304 9.42114 18.7537 9.16813 18.6079C8.91512 18.4622 8.70483 18.2526 8.55832 18" stroke="black" stroke-opacity="0.6" stroke-width="2" stroke-linecap="round" stroke-linejoin="round"/>
</svg>