<svg width="22" height="23" viewBox="0 0 22 23" fill="none" xmlns="http://www.w3.org/2000/svg">
<path d="M7 20.5H3C2.73478 20.5 2.48043 20.3946 2.29289 20.2071C2.10536 20.0196 2 19.7652 2 19.5V15.5C2 15.2348 1.89464 14.9804 1.70711 14.7929C1.51957 14.6054 1.26522 14.5 1 14.5C0.734784 14.5 0.48043 14.6054 0.292893 14.7929C0.105357 14.9804 0 15.2348 0 15.5V19.5C0 20.2956 0.31607 21.0587 0.87868 21.6213C1.44129 22.1839 2.20435 22.5 3 22.5H7C7.26522 22.5 7.51957 22.3946 7.70711 22.2071C7.89464 22.0196 8 21.7652 8 21.5C8 21.2348 7.89464 20.9804 7.70711 20.7929C7.51957 20.6054 7.26522 20.5 7 20.5ZM21 14.5C20.7348 14.5 20.4804 14.6054 20.2929 14.7929C20.1054 14.9804 20 15.2348 20 15.5V19.5C20 19.7652 19.8946 20.0196 19.7071 20.2071C19.5196 20.3946 19.2652 20.5 19 20.5H15C14.7348 20.5 14.4804 20.6054 14.2929 20.7929C14.1054 20.9804 14 21.2348 14 21.5C14 21.7652 14.1054 22.0196 14.2929 22.2071C14.4804 22.3946 14.7348 22.5 15 22.5H19C19.7956 22.5 20.5587 22.1839 21.1213 21.6213C21.6839 21.0587 22 20.2956 22 19.5V15.5C22 15.2348 21.8946 14.9804 21.7071 14.7929C21.5196 14.6054 21.2652 14.5 21 14.5ZM19 0.5H15C14.7348 0.5 14.4804 0.605357 14.2929 0.792893C14.1054 0.98043 14 1.23478 14 1.5C14 1.76522 14.1054 2.01957 14.2929 2.20711C14.4804 2.39464 14.7348 2.5 15 2.5H19C19.2652 2.5 19.5196 2.60536 19.7071 2.79289C19.8946 2.98043 20 3.23478 20 3.5V7.5C20 7.76522 20.1054 8.01957 20.2929 8.20711C20.4804 8.39464 20.7348 8.5 21 8.5C21.2652 8.5 21.5196 8.39464 21.7071 8.20711C21.8946 8.01957 22 7.76522 22 7.5V3.5C22 2.70435 21.6839 1.94129 21.1213 1.37868C20.5587 0.81607 19.7956 0.5 19 0.5ZM1 8.5C1.26522 8.5 1.51957 8.39464 1.70711 8.20711C1.89464 8.01957 2 7.76522 2 7.5V3.5C2 3.23478 2.10536 2.98043 2.29289 2.79289C2.48043 2.60536 2.73478 2.5 3 2.5H7C7.26522 2.5 7.51957 2.39464 7.70711 2.20711C7.89464 2.01957 8 1.76522 8 1.5C8 1.23478 7.89464 0.98043 7.70711 0.792893C7.51957 0.605357 7.26522 0.5 7 0.5H3C2.20435 0.5 1.44129 0.81607 0.87868 1.37868C0.31607 1.94129 0 2.70435 0 3.5V7.5C0 7.76522 0.105357 8.01957 0.292893 8.20711C0.48043 8.39464 0.734784 8.5 1 8.5ZM9 4.5H5C4.73478 4.5 4.48043 4.60536 4.29289 4.79289C4.10536 4.98043 4 5.23478 4 5.5V9.5C4 9.76522 4.10536 10.0196 4.29289 10.2071C4.48043 10.3946 4.73478 10.5 5 10.5H9C9.26522 10.5 9.51957 10.3946 9.70711 10.2071C9.89464 10.0196 10 9.76522 10 9.5V5.5C10 5.23478 9.89464 4.98043 9.70711 4.79289C9.51957 4.60536 9.26522 4.5 9 4.5ZM8 8.5H6V6.5H8V8.5ZM13 10.5H17C17.2652 10.5 17.5196 10.3946 17.7071 10.2071C17.8946 10.0196 18 9.76522 18 9.5V5.5C18 5.23478 17.8946 4.98043 17.7071 4.79289C17.5196 4.60536 17.2652 4.5 17 4.5H13C12.7348 4.5 12.4804 4.60536 12.2929 4.79289C12.1054 4.98043 12 5.23478 12 5.5V9.5C12 9.76522 12.1054 10.0196 12.2929 10.2071C12.4804 10.3946 12.7348 10.5 13 10.5ZM14 6.5H16V8.5H14V6.5ZM9 12.5H5C4.73478 12.5 4.48043 12.6054 4.29289 12.7929C4.10536 12.9804 4 13.2348 4 13.5V17.5C4 17.7652 4.10536 18.0196 4.29289 18.2071C4.48043 18.3946 4.73478 18.5 5 18.5H9C9.26522 18.5 9.51957 18.3946 9.70711 18.2071C9.89464 18.0196 10 17.7652 10 17.5V13.5C10 13.2348 9.89464 12.9804 9.70711 12.7929C9.51957 12.6054 9.26522 12.5 9 12.5ZM8 16.5H6V14.5H8V16.5ZM13 15.5C13.2652 15.5 13.5196 15.3946 13.7071 15.2071C13.8946 15.0196 14 14.7652 14 14.5C14.2652 14.5 14.5196 14.3946 14.7071 14.2071C14.8946 14.0196 15 13.7652 15 13.5C15 13.2348 14.8946 12.9804 14.7071 12.7929C14.5196 12.6054 14.2652 12.5 14 12.5H13C12.7348 12.5 12.4804 12.6054 12.2929 12.7929C12.1054 12.9804 12 13.2348 12 13.5V14.5C12 14.7652 12.1054 15.0196 12.2929 15.2071C12.4804 15.3946 12.7348 15.5 13 15.5ZM17 12.5C16.7348 12.5 16.4804 12.6054 16.2929 12.7929C16.1054 12.9804 16 13.2348 16 13.5V16.5C15.7348 16.5 15.4804 16.6054 15.2929 16.7929C15.1054 16.9804 15 17.2348 15 17.5C15 17.7652 15.1054 18.0196 15.2929 18.2071C15.4804 18.3946 15.7348 18.5 16 18.5H17C17.2652 18.5 17.5196 18.3946 17.7071 18.2071C17.8946 18.0196 18 17.7652 18 17.5V13.5C18 13.2348 17.8946 12.9804 17.7071 12.7929C17.5196 12.6054 17.2652 12.5 17 12.5ZM13 16.5C12.8022 16.5 12.6089 16.5586 12.4444 16.6685C12.28 16.7784 12.1518 16.9346 12.0761 17.1173C12.0004 17.3 11.9806 17.5011 12.0192 17.6951C12.0578 17.8891 12.153 18.0673 12.2929 18.2071C12.4327 18.347 12.6109 18.4422 12.8049 18.4808C12.9989 18.5194 13.2 18.4996 13.3827 18.4239C13.5654 18.3482 13.7216 18.22 13.8315 18.0556C13.9414 17.8911 14 17.6978 14 17.5C14 17.2348 13.8946 16.9804 13.7071 16.7929C13.5196 16.6054 13.2652 16.5 13 16.5Z" />
</svg>
