<svg width="25" height="24" viewBox="0 0 25 24" fill="none" xmlns="http://www.w3.org/2000/svg">
<rect x="0.5" width="24" height="24" rx="12" fill="#257851"/>
<path d="M18.0917 8.00822C18.0142 7.93011 17.9221 7.86811 17.8205 7.82581C17.719 7.7835 17.61 7.76172 17.5 7.76172C17.39 7.76172 17.2811 7.7835 17.1796 7.82581C17.078 7.86811 16.9858 7.93011 16.9084 8.00822L10.7 14.2249L8.09171 11.6082C8.01127 11.5305 7.91632 11.4694 7.81227 11.4284C7.70823 11.3874 7.59713 11.3673 7.48531 11.3692C7.37349 11.3712 7.26315 11.3951 7.16058 11.4397C7.05802 11.4843 6.96524 11.5486 6.88754 11.6291C6.80984 11.7095 6.74875 11.8044 6.70774 11.9085C6.66674 12.0125 6.64663 12.1236 6.64856 12.2354C6.6505 12.3473 6.67444 12.4576 6.71902 12.5602C6.7636 12.6627 6.82794 12.7555 6.90837 12.8332L10.1084 16.0332C10.1858 16.1113 10.278 16.1733 10.3796 16.2156C10.4811 16.2579 10.59 16.2797 10.7 16.2797C10.8101 16.2797 10.919 16.2579 11.0205 16.2156C11.1221 16.1733 11.2142 16.1113 11.2917 16.0332L18.0917 9.23322C18.1763 9.15518 18.2438 9.06047 18.29 8.95506C18.3361 8.84964 18.36 8.7358 18.36 8.62072C18.36 8.50563 18.3361 8.3918 18.29 8.28638C18.2438 8.18096 18.1763 8.08625 18.0917 8.00822Z" fill="white"/>
</svg>
