<svg width="24" height="24" viewBox="0 0 24 24" fill="none" xmlns="http://www.w3.org/2000/svg">
<rect width="24" height="24" rx="12" fill="#0760FB"/>
<path d="M17.5916 8.00822C17.5142 7.93011 17.422 7.86811 17.3205 7.82581C17.2189 7.7835 17.11 7.76172 17 7.76172C16.89 7.76172 16.781 7.7835 16.6795 7.82581C16.5779 7.86811 16.4858 7.93011 16.4083 8.00822L10.2 14.2249L7.59165 11.6082C7.51121 11.5305 7.41626 11.4694 7.31221 11.4284C7.20817 11.3874 7.09706 11.3673 6.98525 11.3692C6.87343 11.3712 6.76309 11.3951 6.66052 11.4397C6.55796 11.4843 6.46518 11.5486 6.38748 11.6291C6.30978 11.7095 6.24868 11.8044 6.20768 11.9085C6.16668 12.0125 6.14657 12.1236 6.1485 12.2354C6.15044 12.3473 6.17438 12.4576 6.21896 12.5602C6.26353 12.6627 6.32788 12.7555 6.40831 12.8332L9.60831 16.0332C9.68578 16.1113 9.77795 16.1733 9.8795 16.2156C9.98105 16.2579 10.09 16.2797 10.2 16.2797C10.31 16.2797 10.4189 16.2579 10.5205 16.2156C10.622 16.1733 10.7142 16.1113 10.7916 16.0332L17.5916 9.23322C17.6762 9.15518 17.7437 9.06047 17.7899 8.95506C17.8361 8.84964 17.8599 8.7358 17.8599 8.62072C17.8599 8.50563 17.8361 8.3918 17.7899 8.28638C17.7437 8.18096 17.6762 8.08625 17.5916 8.00822Z" fill="white"/>
</svg>
